<svg xmlns="http://www.w3.org/2000/svg" xmlns:xlink="http://www.w3.org/1999/xlink" width="500" zoomAndPan="magnify" viewBox="0 0 375 374.999991" height="500" preserveAspectRatio="xMidYMid meet" version="1.0"><defs><g/><clipPath id="630b5bd0b7"><path d="M 34 149.460938 L 73 149.460938 L 73 173 L 34 173 Z M 34 149.460938 " clip-rule="nonzero"/></clipPath><clipPath id="cfc2334ed4"><path d="M 104.429688 185.730469 L 359.925781 185.730469 L 359.925781 205.386719 L 104.429688 205.386719 Z M 104.429688 185.730469 " clip-rule="nonzero"/></clipPath><clipPath id="75324c1fbc"><path d="M 359.878906 188.730469 L 359.878906 202.386719 C 359.878906 204.046875 358.535156 205.386719 356.878906 205.386719 L 107.429688 205.386719 C 105.773438 205.386719 104.429688 204.046875 104.429688 202.386719 L 104.429688 188.730469 C 104.429688 187.070312 105.773438 185.730469 107.429688 185.730469 L 356.878906 185.730469 C 358.535156 185.730469 359.878906 187.070312 359.878906 188.730469 Z M 359.878906 188.730469 " clip-rule="nonzero"/></clipPath><clipPath id="835ed90e6c"><path d="M 0.429688 0.730469 L 255.925781 0.730469 L 255.925781 20.386719 L 0.429688 20.386719 Z M 0.429688 0.730469 " clip-rule="nonzero"/></clipPath><clipPath id="58e9f72fa6"><path d="M 255.878906 3.730469 L 255.878906 17.386719 C 255.878906 19.046875 254.535156 20.386719 252.878906 20.386719 L 3.429688 20.386719 C 1.773438 20.386719 0.429688 19.046875 0.429688 17.386719 L 0.429688 3.730469 C 0.429688 2.070312 1.773438 0.730469 3.429688 0.730469 L 252.878906 0.730469 C 254.535156 0.730469 255.878906 2.070312 255.878906 3.730469 Z M 255.878906 3.730469 " clip-rule="nonzero"/></clipPath><clipPath id="e1c342c8a6"><rect x="0" width="256" y="0" height="21"/></clipPath><clipPath id="0315cf375a"><rect x="0" width="256" y="0" height="57"/></clipPath><clipPath id="7d35eb9085"><rect x="0" width="210" y="0" height="18"/></clipPath></defs><rect x="-37.5" width="450" fill="#ffffff" y="-37.499999" height="449.999989" fill-opacity="1"/><rect x="-37.5" width="450" fill="#ffffff" y="-37.499999" height="449.999989" fill-opacity="1"/><g clip-path="url(#630b5bd0b7)"><path fill="#252a57" d="M 35 156.828125 C 41.226562 154.519531 47.199219 151.558594 53.496094 149.460938 C 56.054688 149.796875 58.363281 151.191406 60.78125 152.101562 C 64.558594 153.800781 68.546875 155.050781 72.179688 157.050781 C 72.4375 159.53125 72.292969 162.03125 72.308594 164.527344 C 66.464844 167.089844 60.683594 169.828125 54.824219 172.40625 C 53.574219 173.238281 52.292969 172.328125 51.125 171.863281 C 45.761719 169.414062 40.394531 166.945312 35 164.527344 C 35 161.96875 34.984375 159.40625 35 156.828125 Z M 68.660156 158.875 C 64.589844 160.703125 60.570312 162.605469 56.550781 164.496094 C 55.222656 165.007812 53.78125 166.066406 52.355469 165.167969 C 47.746094 163.214844 43.277344 160.972656 38.714844 158.925781 C 38.667969 160.222656 38.617188 161.503906 38.570312 162.800781 C 43.566406 165.058594 48.5625 167.285156 53.527344 169.589844 C 58.601562 167.410156 63.613281 165.058594 68.640625 162.75 C 68.660156 161.46875 68.660156 160.171875 68.660156 158.875 Z M 68.660156 158.875 " fill-opacity="1" fill-rule="nonzero"/></g><path fill="#252a57" d="M 34.984375 172.230469 L 52.355469 179.964844 C 53.03125 180.269531 53.816406 180.269531 54.488281 179.949219 L 72.039062 171.925781 L 72.230469 168.101562 L 54.488281 176.492188 C 53.796875 176.8125 53.015625 176.828125 52.308594 176.507812 L 34.855469 168.628906 Z M 34.984375 172.230469 " fill-opacity="1" fill-rule="nonzero"/><path fill="#252a57" d="M 34.984375 180.253906 L 52.355469 187.988281 C 53.03125 188.292969 53.816406 188.292969 54.488281 187.972656 L 72.039062 179.949219 L 72.230469 176.121094 L 54.488281 184.511719 C 53.796875 184.832031 53.015625 184.847656 52.308594 184.527344 L 34.839844 176.652344 Z M 34.984375 180.253906 " fill-opacity="1" fill-rule="nonzero"/><path fill="#252a57" d="M 34.984375 187.363281 L 52.355469 195.097656 C 53.03125 195.402344 53.816406 195.402344 54.488281 195.082031 L 72.039062 187.058594 L 72.230469 183.230469 L 54.488281 191.621094 C 53.796875 191.941406 53.015625 191.960938 52.308594 191.640625 L 34.839844 183.761719 Z M 34.984375 187.363281 " fill-opacity="1" fill-rule="nonzero"/><path fill="#252a57" d="M 66.578125 162.304688 C 66.578125 162.554688 66.488281 162.769531 66.308594 162.949219 C 66.132812 163.125 65.917969 163.214844 65.664062 163.214844 C 65.410156 163.214844 65.195312 163.125 65.019531 162.949219 C 64.839844 162.769531 64.75 162.554688 64.75 162.304688 C 64.75 162.050781 64.839844 161.835938 65.019531 161.65625 C 65.195312 161.480469 65.410156 161.390625 65.664062 161.390625 C 65.917969 161.390625 66.132812 161.480469 66.308594 161.65625 C 66.488281 161.835938 66.578125 162.050781 66.578125 162.304688 Z M 66.578125 162.304688 " fill-opacity="1" fill-rule="nonzero"/><path fill="#252a57" d="M 87.808594 176.378906 C 84.625 174.167969 80.171875 176.042969 77.273438 173.351562 C 76.488281 172.792969 75.703125 172.214844 74.917969 171.65625 C 75.273438 174.21875 74.40625 177.820312 77.113281 179.375 C 79.949219 179.964844 82.992188 179.070312 85.726562 180.191406 C 90.066406 182.269531 90.453125 189.125 86.5625 191.847656 C 84.175781 193.929688 80.890625 193.015625 78.089844 192.648438 C 75.960938 194.554688 73.941406 196.714844 71.316406 197.917969 C 68.035156 199.339844 64.398438 198.300781 60.972656 198.796875 C 58.699219 199.308594 56.550781 200.351562 54.246094 200.703125 C 51.414062 200.71875 48.738281 199.535156 45.9375 199.292969 C 43.40625 199.277344 40.890625 199.964844 38.363281 199.695312 C 34.855469 199.101562 32.484375 196.25 29.507812 194.585938 C 26.335938 193.976562 22.492188 195.402344 19.945312 192.792969 C 16.296875 189.878906 17.289062 183.695312 21.226562 181.519531 C 21.226562 181.519531 21.242188 181.503906 21.277344 181.488281 C 21.484375 181.34375 21.691406 181.230469 21.882812 181.132812 C 21.964844 181.101562 22.042969 181.054688 22.140625 181.039062 C 22.222656 181.007812 22.285156 180.972656 22.363281 180.957031 C 22.523438 180.894531 22.71875 180.847656 22.878906 180.8125 C 22.925781 180.796875 22.972656 180.78125 23.039062 180.78125 C 24.222656 180.527344 26.113281 180.414062 28.945312 180.941406 C 29.714844 181.085938 30.5625 181.277344 31.492188 181.535156 L 31.734375 174.519531 C 30.46875 175.371094 29.203125 175.335938 27.9375 175.898438 C 27.28125 176.1875 26.558594 176.316406 25.855469 176.363281 C 22.300781 176.554688 18.585938 177.339844 16.265625 180.285156 C 12.726562 183.9375 13.316406 189.414062 14.789062 193.847656 C 17.898438 198.011719 23.117188 199.597656 28.144531 198.957031 C 30.675781 201.085938 33.445312 203.152344 36.792969 203.746094 C 40.410156 204.335938 44.09375 203.472656 47.714844 204.175781 C 52.390625 204.929688 57.511719 205.394531 61.789062 202.929688 C 64.847656 202.914062 67.9375 203.183594 70.964844 202.625 C 74.375 201.839844 77.128906 199.535156 79.804688 197.402344 C 83.421875 197.4375 87.570312 197.546875 90.148438 194.519531 C 95.769531 189.667969 94.472656 179.613281 87.808594 176.378906 Z M 87.808594 176.378906 " fill-opacity="1" fill-rule="nonzero"/><g clip-path="url(#cfc2334ed4)"><g clip-path="url(#75324c1fbc)"><g transform="matrix(1, 0, 0, 1, 104, 185)"><g clip-path="url(#e1c342c8a6)"><g clip-path="url(#835ed90e6c)"><g clip-path="url(#58e9f72fa6)"><path fill="#252a57" d="M 0.429688 0.730469 L 255.851562 0.730469 L 255.851562 20.386719 L 0.429688 20.386719 Z M 0.429688 0.730469 " fill-opacity="1" fill-rule="nonzero"/></g></g></g></g></g></g><g transform="matrix(1, 0, 0, 1, 104, 139)"><g clip-path="url(#0315cf375a)"><g fill="#252a57" fill-opacity="1"><g transform="translate(0.526952, 41.550282)"><g><path d="M 10.109375 -6.015625 L 18.890625 -6.015625 L 18.890625 0 L 2.25 0 L 2.25 -28.265625 L 10.109375 -28.265625 Z M 10.109375 -6.015625 "/></g></g></g><g fill="#252a57" fill-opacity="1"><g transform="translate(17.563227, 41.550282)"><g><path d="M 9.9375 -28.265625 L 9.9375 -11.875 C 9.9375 -10.34375 10.289062 -9.160156 11 -8.328125 C 11.707031 -7.503906 12.785156 -7.09375 14.234375 -7.09375 C 15.671875 -7.09375 16.757812 -7.515625 17.5 -8.359375 C 18.238281 -9.203125 18.609375 -10.375 18.609375 -11.875 L 18.609375 -28.265625 L 26.46875 -28.265625 L 26.46875 -11.875 C 26.46875 -9.28125 25.914062 -7.066406 24.8125 -5.234375 C 23.71875 -3.398438 22.226562 -2.019531 20.34375 -1.09375 C 18.457031 -0.175781 16.367188 0.28125 14.078125 0.28125 C 11.773438 0.28125 9.722656 -0.175781 7.921875 -1.09375 C 6.117188 -2.019531 4.703125 -3.390625 3.671875 -5.203125 C 2.640625 -7.023438 2.125 -9.25 2.125 -11.875 L 2.125 -28.265625 Z M 9.9375 -28.265625 "/></g></g></g><g fill="#252a57" fill-opacity="1"><g transform="translate(43.458474, 41.550282)"><g><path d="M 10.109375 -28.265625 L 10.109375 0 L 2.25 0 L 2.25 -28.265625 Z M 10.109375 -28.265625 "/></g></g></g><g fill="#252a57" fill-opacity="1"><g transform="translate(53.159031, 41.550282)"><g><path d="M 12.90625 0.28125 C 9.625 0.28125 6.925781 -0.5 4.8125 -2.0625 C 2.695312 -3.625 1.5625 -5.863281 1.40625 -8.78125 L 9.78125 -8.78125 C 9.863281 -7.789062 10.15625 -7.066406 10.65625 -6.609375 C 11.164062 -6.160156 11.820312 -5.9375 12.625 -5.9375 C 13.351562 -5.9375 13.945312 -6.113281 14.40625 -6.46875 C 14.875 -6.832031 15.109375 -7.335938 15.109375 -7.984375 C 15.109375 -8.804688 14.722656 -9.441406 13.953125 -9.890625 C 13.179688 -10.347656 11.925781 -10.859375 10.1875 -11.421875 C 8.34375 -12.035156 6.851562 -12.628906 5.71875 -13.203125 C 4.582031 -13.785156 3.59375 -14.628906 2.75 -15.734375 C 1.90625 -16.847656 1.484375 -18.300781 1.484375 -20.09375 C 1.484375 -21.90625 1.9375 -23.457031 2.84375 -24.75 C 3.75 -26.050781 5.003906 -27.035156 6.609375 -27.703125 C 8.210938 -28.367188 10.03125 -28.703125 12.0625 -28.703125 C 15.351562 -28.703125 17.976562 -27.929688 19.9375 -26.390625 C 21.90625 -24.859375 22.957031 -22.703125 23.09375 -19.921875 L 14.546875 -19.921875 C 14.523438 -20.773438 14.265625 -21.414062 13.765625 -21.84375 C 13.273438 -22.28125 12.644531 -22.5 11.875 -22.5 C 11.28125 -22.5 10.796875 -22.320312 10.421875 -21.96875 C 10.046875 -21.625 9.859375 -21.128906 9.859375 -20.484375 C 9.859375 -19.953125 10.066406 -19.488281 10.484375 -19.09375 C 10.898438 -18.707031 11.414062 -18.375 12.03125 -18.09375 C 12.644531 -17.820312 13.550781 -17.472656 14.75 -17.046875 C 16.539062 -16.429688 18.015625 -15.820312 19.171875 -15.21875 C 20.335938 -14.613281 21.34375 -13.769531 22.1875 -12.6875 C 23.03125 -11.601562 23.453125 -10.234375 23.453125 -8.578125 C 23.453125 -6.890625 23.03125 -5.378906 22.1875 -4.046875 C 21.34375 -2.710938 20.125 -1.65625 18.53125 -0.875 C 16.945312 -0.101562 15.070312 0.28125 12.90625 0.28125 Z M 12.90625 0.28125 "/></g></g></g><g fill="#252a57" fill-opacity="1"><g transform="translate(75.366375, 41.550282)"><g/></g></g><g fill="#252a57" fill-opacity="1"><g transform="translate(80.376876, 41.550282)"><g><path d="M 20.125 -4.609375 L 10.109375 -4.609375 L 8.578125 0 L 0.328125 0 L 10.625 -28.265625 L 19.6875 -28.265625 L 29.953125 0 L 21.65625 0 Z M 18.15625 -10.625 L 15.109375 -19.765625 L 12.109375 -10.625 Z M 18.15625 -10.625 "/></g></g></g><g fill="#252a57" fill-opacity="1"><g transform="translate(107.995821, 41.550282)"><g><path d="M 28.421875 0 L 20.5625 0 L 10.109375 -15.796875 L 10.109375 0 L 2.25 0 L 2.25 -28.265625 L 10.109375 -28.265625 L 20.5625 -12.265625 L 20.5625 -28.265625 L 28.421875 -28.265625 Z M 28.421875 0 "/></g></g></g><g fill="#252a57" fill-opacity="1"><g transform="translate(136.015627, 41.550282)"><g><path d="M 23.53125 -28.265625 L 23.53125 -22.015625 L 16 -22.015625 L 16 0 L 8.140625 0 L 8.140625 -22.015625 L 0.6875 -22.015625 L 0.6875 -28.265625 Z M 23.53125 -28.265625 "/></g></g></g><g fill="#252a57" fill-opacity="1"><g transform="translate(157.581603, 41.550282)"><g><path d="M 15.796875 0.28125 C 13.148438 0.28125 10.71875 -0.335938 8.5 -1.578125 C 6.28125 -2.828125 4.519531 -4.550781 3.21875 -6.75 C 1.925781 -8.957031 1.28125 -11.453125 1.28125 -14.234375 C 1.28125 -17.015625 1.925781 -19.503906 3.21875 -21.703125 C 4.519531 -23.910156 6.28125 -25.628906 8.5 -26.859375 C 10.71875 -28.085938 13.148438 -28.703125 15.796875 -28.703125 C 18.472656 -28.703125 20.910156 -28.085938 23.109375 -26.859375 C 25.316406 -25.628906 27.0625 -23.910156 28.34375 -21.703125 C 29.625 -19.503906 30.265625 -17.015625 30.265625 -14.234375 C 30.265625 -11.453125 29.625 -8.957031 28.34375 -6.75 C 27.0625 -4.550781 25.3125 -2.828125 23.09375 -1.578125 C 20.875 -0.335938 18.441406 0.28125 15.796875 0.28125 Z M 15.796875 -7.015625 C 17.796875 -7.015625 19.378906 -7.671875 20.546875 -8.984375 C 21.710938 -10.296875 22.296875 -12.046875 22.296875 -14.234375 C 22.296875 -16.472656 21.710938 -18.238281 20.546875 -19.53125 C 19.378906 -20.832031 17.796875 -21.484375 15.796875 -21.484375 C 13.765625 -21.484375 12.171875 -20.832031 11.015625 -19.53125 C 9.867188 -18.238281 9.296875 -16.472656 9.296875 -14.234375 C 9.296875 -12.015625 9.867188 -10.253906 11.015625 -8.953125 C 12.171875 -7.660156 13.765625 -7.015625 15.796875 -7.015625 Z M 15.796875 -7.015625 "/></g></g></g><g fill="#252a57" fill-opacity="1"><g transform="translate(186.483296, 41.550282)"><g><path d="M 28.421875 0 L 20.5625 0 L 10.109375 -15.796875 L 10.109375 0 L 2.25 0 L 2.25 -28.265625 L 10.109375 -28.265625 L 20.5625 -12.265625 L 20.5625 -28.265625 L 28.421875 -28.265625 Z M 28.421875 0 "/></g></g></g><g fill="#252a57" fill-opacity="1"><g transform="translate(214.503114, 41.550282)"><g><path d="M 10.109375 -28.265625 L 10.109375 0 L 2.25 0 L 2.25 -28.265625 Z M 10.109375 -28.265625 "/></g></g></g><g fill="#252a57" fill-opacity="1"><g transform="translate(224.203659, 41.550282)"><g><path d="M 15.796875 0.28125 C 13.148438 0.28125 10.71875 -0.335938 8.5 -1.578125 C 6.28125 -2.828125 4.519531 -4.550781 3.21875 -6.75 C 1.925781 -8.957031 1.28125 -11.453125 1.28125 -14.234375 C 1.28125 -17.015625 1.925781 -19.503906 3.21875 -21.703125 C 4.519531 -23.910156 6.28125 -25.628906 8.5 -26.859375 C 10.71875 -28.085938 13.148438 -28.703125 15.796875 -28.703125 C 18.472656 -28.703125 20.910156 -28.085938 23.109375 -26.859375 C 25.316406 -25.628906 27.0625 -23.910156 28.34375 -21.703125 C 29.625 -19.503906 30.265625 -17.015625 30.265625 -14.234375 C 30.265625 -11.453125 29.625 -8.957031 28.34375 -6.75 C 27.0625 -4.550781 25.3125 -2.828125 23.09375 -1.578125 C 20.875 -0.335938 18.441406 0.28125 15.796875 0.28125 Z M 15.796875 -7.015625 C 17.796875 -7.015625 19.378906 -7.671875 20.546875 -8.984375 C 21.710938 -10.296875 22.296875 -12.046875 22.296875 -14.234375 C 22.296875 -16.472656 21.710938 -18.238281 20.546875 -19.53125 C 19.378906 -20.832031 17.796875 -21.484375 15.796875 -21.484375 C 13.765625 -21.484375 12.171875 -20.832031 11.015625 -19.53125 C 9.867188 -18.238281 9.296875 -16.472656 9.296875 -14.234375 C 9.296875 -12.015625 9.867188 -10.253906 11.015625 -8.953125 C 12.171875 -7.660156 13.765625 -7.015625 15.796875 -7.015625 Z M 15.796875 -7.015625 "/></g></g></g></g></g><g transform="matrix(1, 0, 0, 1, 133, 185)"><g clip-path="url(#7d35eb9085)"><g fill="#fff9fb" fill-opacity="1"><g transform="translate(1.231949, 12.477996)"><g><path d="M 3.3125 -8.34375 C 4.71875 -8.34375 5.800781 -7.972656 6.5625 -7.234375 C 7.332031 -6.492188 7.71875 -5.46875 7.71875 -4.15625 C 7.71875 -2.84375 7.332031 -1.820312 6.5625 -1.09375 C 5.800781 -0.363281 4.71875 0 3.3125 0 L 0.96875 0 L 0.96875 -8.34375 Z M 3.3125 -0.453125 C 4.570312 -0.453125 5.53125 -0.773438 6.1875 -1.421875 C 6.84375 -2.078125 7.171875 -2.988281 7.171875 -4.15625 C 7.171875 -5.320312 6.84375 -6.234375 6.1875 -6.890625 C 5.53125 -7.554688 4.570312 -7.890625 3.3125 -7.890625 L 1.515625 -7.890625 L 1.515625 -0.453125 Z M 3.3125 -0.453125 "/></g></g></g><g fill="#fff9fb" fill-opacity="1"><g transform="translate(19.087978, 12.477996)"><g><path d="M 5.703125 -2.140625 L 1.75 -2.140625 L 0.953125 0 L 0.375 0 L 3.4375 -8.140625 L 4.03125 -8.140625 L 7.078125 0 L 6.5 0 Z M 5.53125 -2.59375 L 3.734375 -7.453125 L 1.90625 -2.59375 Z M 5.53125 -2.59375 "/></g></g></g><g fill="#fff9fb" fill-opacity="1"><g transform="translate(36.030216, 12.477996)"><g><path d="M 5.578125 -8.34375 L 5.578125 -7.890625 L 3.203125 -7.890625 L 3.203125 0 L 2.671875 0 L 2.671875 -7.890625 L 0.296875 -7.890625 L 0.296875 -8.34375 Z M 5.578125 -8.34375 "/></g></g></g><g fill="#fff9fb" fill-opacity="1"><g transform="translate(51.405934, 12.477996)"><g><path d="M 5.703125 -2.140625 L 1.75 -2.140625 L 0.953125 0 L 0.375 0 L 3.4375 -8.140625 L 4.03125 -8.140625 L 7.078125 0 L 6.5 0 Z M 5.53125 -2.59375 L 3.734375 -7.453125 L 1.90625 -2.59375 Z M 5.53125 -2.59375 "/></g></g></g><g fill="#fff9fb" fill-opacity="1"><g transform="translate(68.348173, 12.477996)"><g/></g></g><g fill="#fff9fb" fill-opacity="1"><g transform="translate(81.196127, 12.477996)"><g><path d="M 1.515625 -7.890625 L 1.515625 -4.40625 L 4.828125 -4.40625 L 4.828125 -3.953125 L 1.515625 -3.953125 L 1.515625 -0.453125 L 5.1875 -0.453125 L 5.1875 0 L 0.96875 0 L 0.96875 -8.34375 L 5.1875 -8.34375 L 5.1875 -7.890625 Z M 1.515625 -7.890625 "/></g></g></g><g fill="#fff9fb" fill-opacity="1"><g transform="translate(96.524377, 12.477996)"><g><path d="M 6.9375 0 L 6.40625 0 L 1.515625 -7.453125 L 1.515625 0 L 0.96875 0 L 0.96875 -8.328125 L 1.515625 -8.328125 L 6.40625 -0.890625 L 6.40625 -8.328125 L 6.9375 -8.328125 Z M 6.9375 0 "/></g></g></g><g fill="#fff9fb" fill-opacity="1"><g transform="translate(113.941311, 12.477996)"><g><path d="M 7.828125 -5.875 C 7.585938 -6.5 7.191406 -7 6.640625 -7.375 C 6.085938 -7.75 5.4375 -7.9375 4.6875 -7.9375 C 4.03125 -7.9375 3.4375 -7.78125 2.90625 -7.46875 C 2.375 -7.15625 1.953125 -6.710938 1.640625 -6.140625 C 1.335938 -5.578125 1.1875 -4.914062 1.1875 -4.15625 C 1.1875 -3.394531 1.335938 -2.726562 1.640625 -2.15625 C 1.953125 -1.59375 2.375 -1.15625 2.90625 -0.84375 C 3.4375 -0.539062 4.03125 -0.390625 4.6875 -0.390625 C 5.320312 -0.390625 5.894531 -0.53125 6.40625 -0.8125 C 6.925781 -1.101562 7.335938 -1.507812 7.640625 -2.03125 C 7.953125 -2.5625 8.125 -3.179688 8.15625 -3.890625 L 4.4375 -3.890625 L 4.4375 -4.328125 L 8.703125 -4.328125 L 8.703125 -3.984375 C 8.679688 -3.203125 8.492188 -2.503906 8.140625 -1.890625 C 7.796875 -1.273438 7.320312 -0.789062 6.71875 -0.4375 C 6.113281 -0.09375 5.4375 0.078125 4.6875 0.078125 C 3.914062 0.078125 3.222656 -0.0976562 2.609375 -0.453125 C 1.992188 -0.816406 1.507812 -1.320312 1.15625 -1.96875 C 0.8125 -2.613281 0.640625 -3.34375 0.640625 -4.15625 C 0.640625 -4.976562 0.8125 -5.710938 1.15625 -6.359375 C 1.507812 -7.003906 1.992188 -7.503906 2.609375 -7.859375 C 3.222656 -8.222656 3.914062 -8.40625 4.6875 -8.40625 C 5.582031 -8.40625 6.351562 -8.179688 7 -7.734375 C 7.65625 -7.285156 8.132812 -6.664062 8.4375 -5.875 Z M 7.828125 -5.875 "/></g></g></g><g fill="#fff9fb" fill-opacity="1"><g transform="translate(132.782346, 12.477996)"><g><path d="M 1.515625 -8.34375 L 1.515625 0 L 0.96875 0 L 0.96875 -8.34375 Z M 1.515625 -8.34375 "/></g></g></g><g fill="#fff9fb" fill-opacity="1"><g transform="translate(144.775845, 12.477996)"><g><path d="M 6.9375 0 L 6.40625 0 L 1.515625 -7.453125 L 1.515625 0 L 0.96875 0 L 0.96875 -8.328125 L 1.515625 -8.328125 L 6.40625 -0.890625 L 6.40625 -8.328125 L 6.9375 -8.328125 Z M 6.9375 0 "/></g></g></g><g fill="#fff9fb" fill-opacity="1"><g transform="translate(162.192779, 12.477996)"><g><path d="M 1.515625 -7.890625 L 1.515625 -4.40625 L 4.828125 -4.40625 L 4.828125 -3.953125 L 1.515625 -3.953125 L 1.515625 -0.453125 L 5.1875 -0.453125 L 5.1875 0 L 0.96875 0 L 0.96875 -8.34375 L 5.1875 -8.34375 L 5.1875 -7.890625 Z M 1.515625 -7.890625 "/></g></g></g><g fill="#fff9fb" fill-opacity="1"><g transform="translate(177.521029, 12.477996)"><g><path d="M 1.515625 -7.890625 L 1.515625 -4.40625 L 4.828125 -4.40625 L 4.828125 -3.953125 L 1.515625 -3.953125 L 1.515625 -0.453125 L 5.1875 -0.453125 L 5.1875 0 L 0.96875 0 L 0.96875 -8.34375 L 5.1875 -8.34375 L 5.1875 -7.890625 Z M 1.515625 -7.890625 "/></g></g></g><g fill="#fff9fb" fill-opacity="1"><g transform="translate(192.849279, 12.477996)"><g><path d="M 5.46875 0 L 3.34375 -3.546875 L 1.515625 -3.546875 L 1.515625 0 L 0.96875 0 L 0.96875 -8.34375 L 3.265625 -8.34375 C 4.191406 -8.34375 4.882812 -8.125 5.34375 -7.6875 C 5.8125 -7.25 6.046875 -6.671875 6.046875 -5.953125 C 6.046875 -5.304688 5.863281 -4.773438 5.5 -4.359375 C 5.144531 -3.941406 4.625 -3.6875 3.9375 -3.59375 L 6.109375 0 Z M 1.515625 -4 L 3.296875 -4 C 4.023438 -4 4.570312 -4.175781 4.9375 -4.53125 C 5.300781 -4.894531 5.484375 -5.367188 5.484375 -5.953125 C 5.484375 -7.222656 4.742188 -7.859375 3.265625 -7.859375 L 1.515625 -7.859375 Z M 1.515625 -4 "/></g></g></g></g></g><path stroke-linecap="round" transform="matrix(0, 0.75, -0.75, 0, 97.854447, 143.398349)" fill="none" stroke-linejoin="miter" d="M 0.500118 0.498638 L 101.500125 0.498638 " stroke="#b4b4b4" stroke-width="1" stroke-opacity="1" stroke-miterlimit="4"/></svg>