<svg xmlns="http://www.w3.org/2000/svg" xmlns:xlink="http://www.w3.org/1999/xlink" width="300" zoomAndPan="magnify" viewBox="0 0 224.87999 38.249999" height="51" preserveAspectRatio="xMidYMid meet" version="1.0"><defs><g/><clipPath id="d866758ade"><path d="M 24 3.75 L 45 3.75 L 45 17 L 24 17 Z M 24 3.75 " clip-rule="nonzero"/></clipPath><clipPath id="d040867bd0"><path d="M 12.410156 15 L 57 15 L 57 33.910156 L 12.410156 33.910156 Z M 12.410156 15 " clip-rule="nonzero"/></clipPath><clipPath id="b88d54dff1"><path d="M 71.6875 24.621094 L 206.0625 24.621094 L 206.0625 34.960938 L 71.6875 34.960938 Z M 71.6875 24.621094 " clip-rule="nonzero"/></clipPath><clipPath id="4d01e99e6b"><path d="M 206.035156 26.089844 L 206.035156 33.488281 C 206.035156 34.300781 205.378906 34.960938 204.566406 34.960938 L 73.15625 34.960938 C 72.34375 34.960938 71.6875 34.300781 71.6875 33.488281 L 71.6875 26.089844 C 71.6875 25.277344 72.34375 24.621094 73.15625 24.621094 L 204.566406 24.621094 C 205.378906 24.621094 206.035156 25.277344 206.035156 26.089844 Z M 206.035156 26.089844 " clip-rule="nonzero"/></clipPath><clipPath id="215b3aca58"><path d="M 0.6875 0.621094 L 135.0625 0.621094 L 135.0625 10.960938 L 0.6875 10.960938 Z M 0.6875 0.621094 " clip-rule="nonzero"/></clipPath><clipPath id="9c6bede903"><path d="M 135.035156 2.089844 L 135.035156 9.488281 C 135.035156 10.300781 134.378906 10.960938 133.566406 10.960938 L 2.15625 10.960938 C 1.34375 10.960938 0.6875 10.300781 0.6875 9.488281 L 0.6875 2.089844 C 0.6875 1.277344 1.34375 0.621094 2.15625 0.621094 L 133.566406 0.621094 C 134.378906 0.621094 135.035156 1.277344 135.035156 2.089844 Z M 135.035156 2.089844 " clip-rule="nonzero"/></clipPath><clipPath id="f3bbc1f464"><rect x="0" width="136" y="0" height="11"/></clipPath><clipPath id="ef1bce6216"><path d="M 119 6 L 134.945312 6 L 134.945312 23 L 119 23 Z M 119 6 " clip-rule="nonzero"/></clipPath><clipPath id="c1ddfac98b"><rect x="0" width="135" y="0" height="30"/></clipPath><clipPath id="8829791ad3"><path d="M 0.078125 2 L 5 2 L 5 7 L 0.078125 7 Z M 0.078125 2 " clip-rule="nonzero"/></clipPath><clipPath id="40f12756b6"><rect x="0" width="111" y="0" height="10"/></clipPath></defs><g clip-path="url(#d866758ade)"><path fill="#252a57" d="M 24.539062 7.75 C 27.921875 6.5 31.164062 4.890625 34.578125 3.75 C 35.96875 3.933594 37.222656 4.691406 38.535156 5.1875 C 40.585938 6.105469 42.75 6.785156 44.726562 7.871094 C 44.863281 9.21875 44.785156 10.574219 44.792969 11.933594 C 41.621094 13.324219 38.484375 14.808594 35.300781 16.207031 C 34.625 16.660156 33.925781 16.164062 33.292969 15.914062 C 30.382812 14.582031 27.46875 13.246094 24.539062 11.933594 C 24.539062 10.539062 24.53125 9.148438 24.539062 7.75 Z M 42.8125 8.863281 C 40.605469 9.855469 38.421875 10.886719 36.238281 11.914062 C 35.519531 12.191406 34.734375 12.765625 33.960938 12.28125 C 31.457031 11.21875 29.035156 10 26.554688 8.890625 C 26.53125 9.59375 26.503906 10.289062 26.476562 10.992188 C 29.191406 12.21875 31.902344 13.425781 34.597656 14.679688 C 37.351562 13.496094 40.074219 12.21875 42.804688 10.96875 C 42.8125 10.269531 42.8125 9.566406 42.8125 8.863281 Z M 42.8125 8.863281 " fill-opacity="1" fill-rule="nonzero"/></g><path fill="#252a57" d="M 24.53125 16.113281 L 33.960938 20.3125 C 34.328125 20.476562 34.753906 20.476562 35.117188 20.304688 L 44.648438 15.949219 L 44.75 13.871094 L 35.117188 18.425781 C 34.746094 18.597656 34.320312 18.609375 33.9375 18.433594 L 24.460938 14.15625 Z M 24.53125 16.113281 " fill-opacity="1" fill-rule="nonzero"/><path fill="#252a57" d="M 24.53125 20.46875 L 33.960938 24.667969 C 34.328125 24.832031 34.753906 24.832031 35.117188 24.660156 L 44.648438 20.304688 L 44.75 18.226562 L 35.117188 22.78125 C 34.746094 22.953125 34.320312 22.964844 33.9375 22.789062 L 24.453125 18.511719 Z M 24.53125 20.46875 " fill-opacity="1" fill-rule="nonzero"/><path fill="#252a57" d="M 24.53125 24.328125 L 33.960938 28.527344 C 34.328125 28.691406 34.753906 28.691406 35.117188 28.519531 L 44.648438 24.164062 L 44.75 22.085938 L 35.117188 26.640625 C 34.746094 26.816406 34.320312 26.824219 33.9375 26.648438 L 24.453125 22.371094 Z M 24.53125 24.328125 " fill-opacity="1" fill-rule="nonzero"/><path fill="#252a57" d="M 41.683594 10.722656 C 41.683594 10.859375 41.632812 10.976562 41.535156 11.074219 C 41.441406 11.171875 41.324219 11.21875 41.1875 11.21875 C 41.050781 11.21875 40.933594 11.171875 40.835938 11.074219 C 40.738281 10.976562 40.691406 10.859375 40.691406 10.722656 C 40.691406 10.585938 40.738281 10.46875 40.835938 10.375 C 40.933594 10.277344 41.050781 10.226562 41.1875 10.226562 C 41.324219 10.226562 41.441406 10.277344 41.535156 10.375 C 41.632812 10.46875 41.683594 10.585938 41.683594 10.722656 Z M 41.683594 10.722656 " fill-opacity="1" fill-rule="nonzero"/><g clip-path="url(#d040867bd0)"><path fill="#252a57" d="M 53.210938 18.363281 C 51.480469 17.164062 49.0625 18.183594 47.488281 16.722656 C 47.0625 16.417969 46.636719 16.105469 46.210938 15.800781 C 46.402344 17.191406 45.933594 19.148438 47.402344 19.992188 C 48.941406 20.3125 50.59375 19.824219 52.078125 20.433594 C 54.433594 21.5625 54.644531 25.285156 52.53125 26.761719 C 51.234375 27.894531 49.453125 27.398438 47.933594 27.195312 C 46.777344 28.230469 45.679688 29.40625 44.253906 30.058594 C 42.472656 30.832031 40.5 30.265625 38.640625 30.535156 C 37.40625 30.8125 36.238281 31.378906 34.988281 31.570312 C 33.449219 31.578125 31.996094 30.933594 30.476562 30.804688 C 29.101562 30.796875 27.738281 31.171875 26.363281 31.023438 C 24.460938 30.699219 23.175781 29.152344 21.558594 28.25 C 19.835938 27.917969 17.75 28.691406 16.367188 27.273438 C 14.386719 25.691406 14.925781 22.335938 17.0625 21.15625 C 17.0625 21.15625 17.070312 21.148438 17.089844 21.136719 C 17.203125 21.058594 17.316406 21 17.417969 20.945312 C 17.460938 20.929688 17.507812 20.902344 17.558594 20.894531 C 17.601562 20.878906 17.636719 20.859375 17.679688 20.851562 C 17.765625 20.816406 17.871094 20.789062 17.957031 20.773438 C 17.984375 20.765625 18.011719 20.753906 18.046875 20.753906 C 18.6875 20.617188 19.714844 20.554688 21.253906 20.84375 C 21.671875 20.921875 22.132812 21.023438 22.636719 21.164062 L 22.765625 17.355469 C 22.078125 17.816406 21.390625 17.800781 20.707031 18.105469 C 20.347656 18.261719 19.957031 18.328125 19.574219 18.355469 C 17.644531 18.460938 15.628906 18.886719 14.367188 20.484375 C 12.445312 22.46875 12.769531 25.441406 13.566406 27.847656 C 15.253906 30.109375 18.089844 30.96875 20.816406 30.621094 C 22.191406 31.777344 23.695312 32.898438 25.511719 33.222656 C 27.476562 33.542969 29.476562 33.074219 31.441406 33.457031 C 33.980469 33.863281 36.761719 34.117188 39.082031 32.777344 C 40.742188 32.769531 42.421875 32.917969 44.0625 32.613281 C 45.914062 32.1875 47.410156 30.933594 48.863281 29.777344 C 50.828125 29.796875 53.078125 29.855469 54.480469 28.214844 C 57.53125 25.582031 56.824219 20.121094 53.210938 18.363281 Z M 53.210938 18.363281 " fill-opacity="1" fill-rule="nonzero"/></g><g clip-path="url(#b88d54dff1)"><g clip-path="url(#4d01e99e6b)"><g transform="matrix(1, 0, 0, 1, 71, 24)"><g clip-path="url(#f3bbc1f464)"><g clip-path="url(#215b3aca58)"><g clip-path="url(#9c6bede903)"><path fill="#252a57" d="M 0.6875 0.621094 L 135.023438 0.621094 L 135.023438 10.960938 L 0.6875 10.960938 Z M 0.6875 0.621094 " fill-opacity="1" fill-rule="nonzero"/></g></g></g></g></g></g><g transform="matrix(1, 0, 0, 1, 71, 0)"><g clip-path="url(#c1ddfac98b)"><g fill="#252a57" fill-opacity="1"><g transform="translate(0.738373, 21.896361)"><g><path d="M 5.3125 -3.15625 L 9.921875 -3.15625 L 9.921875 0 L 1.1875 0 L 1.1875 -14.859375 L 5.3125 -14.859375 Z M 5.3125 -3.15625 "/></g></g></g><g fill="#252a57" fill-opacity="1"><g transform="translate(9.698363, 21.896361)"><g><path d="M 5.234375 -14.859375 L 5.234375 -6.234375 C 5.234375 -5.429688 5.414062 -4.8125 5.78125 -4.375 C 6.15625 -3.945312 6.722656 -3.734375 7.484375 -3.734375 C 8.242188 -3.734375 8.816406 -3.953125 9.203125 -4.390625 C 9.585938 -4.835938 9.78125 -5.453125 9.78125 -6.234375 L 9.78125 -14.859375 L 13.90625 -14.859375 L 13.90625 -6.234375 C 13.90625 -4.867188 13.617188 -3.707031 13.046875 -2.75 C 12.472656 -1.789062 11.691406 -1.066406 10.703125 -0.578125 C 9.710938 -0.0976562 8.609375 0.140625 7.390625 0.140625 C 6.179688 0.140625 5.101562 -0.0976562 4.15625 -0.578125 C 3.207031 -1.066406 2.460938 -1.785156 1.921875 -2.734375 C 1.378906 -3.691406 1.109375 -4.859375 1.109375 -6.234375 L 1.109375 -14.859375 Z M 5.234375 -14.859375 "/></g></g></g><g fill="#252a57" fill-opacity="1"><g transform="translate(23.317604, 21.896361)"><g><path d="M 5.3125 -14.859375 L 5.3125 0 L 1.1875 0 L 1.1875 -14.859375 Z M 5.3125 -14.859375 "/></g></g></g><g fill="#252a57" fill-opacity="1"><g transform="translate(28.419476, 21.896361)"><g><path d="M 6.78125 0.140625 C 5.050781 0.140625 3.628906 -0.265625 2.515625 -1.078125 C 1.410156 -1.898438 0.816406 -3.078125 0.734375 -4.609375 L 5.140625 -4.609375 C 5.179688 -4.097656 5.332031 -3.722656 5.59375 -3.484375 C 5.863281 -3.242188 6.210938 -3.125 6.640625 -3.125 C 7.015625 -3.125 7.328125 -3.21875 7.578125 -3.40625 C 7.828125 -3.59375 7.953125 -3.851562 7.953125 -4.1875 C 7.953125 -4.625 7.742188 -4.960938 7.328125 -5.203125 C 6.921875 -5.441406 6.265625 -5.707031 5.359375 -6 C 4.390625 -6.320312 3.601562 -6.632812 3 -6.9375 C 2.40625 -7.238281 1.882812 -7.679688 1.4375 -8.265625 C 1 -8.847656 0.78125 -9.613281 0.78125 -10.5625 C 0.78125 -11.519531 1.019531 -12.335938 1.5 -13.015625 C 1.976562 -13.691406 2.640625 -14.207031 3.484375 -14.5625 C 4.328125 -14.914062 5.28125 -15.09375 6.34375 -15.09375 C 8.070312 -15.09375 9.453125 -14.6875 10.484375 -13.875 C 11.515625 -13.070312 12.066406 -11.9375 12.140625 -10.46875 L 7.65625 -10.46875 C 7.632812 -10.925781 7.492188 -11.265625 7.234375 -11.484375 C 6.972656 -11.710938 6.640625 -11.828125 6.234375 -11.828125 C 5.929688 -11.828125 5.679688 -11.734375 5.484375 -11.546875 C 5.285156 -11.367188 5.1875 -11.109375 5.1875 -10.765625 C 5.1875 -10.484375 5.296875 -10.238281 5.515625 -10.03125 C 5.734375 -9.832031 6.003906 -9.660156 6.328125 -9.515625 C 6.648438 -9.367188 7.125 -9.179688 7.75 -8.953125 C 8.695312 -8.628906 9.472656 -8.3125 10.078125 -8 C 10.691406 -7.6875 11.21875 -7.242188 11.65625 -6.671875 C 12.101562 -6.097656 12.328125 -5.378906 12.328125 -4.515625 C 12.328125 -3.628906 12.101562 -2.832031 11.65625 -2.125 C 11.21875 -1.425781 10.582031 -0.875 9.75 -0.46875 C 8.914062 -0.0625 7.925781 0.140625 6.78125 0.140625 Z M 6.78125 0.140625 "/></g></g></g><g fill="#252a57" fill-opacity="1"><g transform="translate(40.099116, 21.896361)"><g/></g></g><g fill="#252a57" fill-opacity="1"><g transform="translate(42.734319, 21.896361)"><g><path d="M 10.578125 -2.421875 L 5.3125 -2.421875 L 4.515625 0 L 0.171875 0 L 5.578125 -14.859375 L 10.34375 -14.859375 L 15.75 0 L 11.375 0 Z M 9.546875 -5.578125 L 7.953125 -10.390625 L 6.359375 -5.578125 Z M 9.546875 -5.578125 "/></g></g></g><g fill="#252a57" fill-opacity="1"><g transform="translate(57.260115, 21.896361)"><g><path d="M 14.9375 0 L 10.8125 0 L 5.3125 -8.3125 L 5.3125 0 L 1.1875 0 L 1.1875 -14.859375 L 5.3125 -14.859375 L 10.8125 -6.453125 L 10.8125 -14.859375 L 14.9375 -14.859375 Z M 14.9375 0 "/></g></g></g><g fill="#252a57" fill-opacity="1"><g transform="translate(71.996738, 21.896361)"><g><path d="M 12.375 -14.859375 L 12.375 -11.578125 L 8.40625 -11.578125 L 8.40625 0 L 4.28125 0 L 4.28125 -11.578125 L 0.359375 -11.578125 L 0.359375 -14.859375 Z M 12.375 -14.859375 "/></g></g></g><g fill="#252a57" fill-opacity="1"><g transform="translate(83.33906, 21.896361)"><g><path d="M 8.3125 0.140625 C 6.914062 0.140625 5.632812 -0.179688 4.46875 -0.828125 C 3.300781 -1.484375 2.375 -2.390625 1.6875 -3.546875 C 1.007812 -4.710938 0.671875 -6.023438 0.671875 -7.484375 C 0.671875 -8.941406 1.007812 -10.25 1.6875 -11.40625 C 2.375 -12.570312 3.300781 -13.476562 4.46875 -14.125 C 5.632812 -14.769531 6.914062 -15.09375 8.3125 -15.09375 C 9.707031 -15.09375 10.984375 -14.769531 12.140625 -14.125 C 13.304688 -13.476562 14.222656 -12.570312 14.890625 -11.40625 C 15.566406 -10.25 15.90625 -8.941406 15.90625 -7.484375 C 15.90625 -6.023438 15.566406 -4.710938 14.890625 -3.546875 C 14.222656 -2.390625 13.304688 -1.484375 12.140625 -0.828125 C 10.972656 -0.179688 9.695312 0.140625 8.3125 0.140625 Z M 8.3125 -3.6875 C 9.363281 -3.6875 10.191406 -4.03125 10.796875 -4.71875 C 11.410156 -5.40625 11.71875 -6.328125 11.71875 -7.484375 C 11.71875 -8.660156 11.410156 -9.585938 10.796875 -10.265625 C 10.191406 -10.953125 9.363281 -11.296875 8.3125 -11.296875 C 7.238281 -11.296875 6.398438 -10.953125 5.796875 -10.265625 C 5.191406 -9.585938 4.890625 -8.660156 4.890625 -7.484375 C 4.890625 -6.316406 5.191406 -5.390625 5.796875 -4.703125 C 6.398438 -4.023438 7.238281 -3.6875 8.3125 -3.6875 Z M 8.3125 -3.6875 "/></g></g></g><g fill="#252a57" fill-opacity="1"><g transform="translate(98.5395, 21.896361)"><g><path d="M 14.9375 0 L 10.8125 0 L 5.3125 -8.3125 L 5.3125 0 L 1.1875 0 L 1.1875 -14.859375 L 5.3125 -14.859375 L 10.8125 -6.453125 L 10.8125 -14.859375 L 14.9375 -14.859375 Z M 14.9375 0 "/></g></g></g><g fill="#252a57" fill-opacity="1"><g transform="translate(113.27613, 21.896361)"><g><path d="M 5.3125 -14.859375 L 5.3125 0 L 1.1875 0 L 1.1875 -14.859375 Z M 5.3125 -14.859375 "/></g></g></g><g clip-path="url(#ef1bce6216)"><g fill="#252a57" fill-opacity="1"><g transform="translate(118.377995, 21.896361)"><g><path d="M 8.3125 0.140625 C 6.914062 0.140625 5.632812 -0.179688 4.46875 -0.828125 C 3.300781 -1.484375 2.375 -2.390625 1.6875 -3.546875 C 1.007812 -4.710938 0.671875 -6.023438 0.671875 -7.484375 C 0.671875 -8.941406 1.007812 -10.25 1.6875 -11.40625 C 2.375 -12.570312 3.300781 -13.476562 4.46875 -14.125 C 5.632812 -14.769531 6.914062 -15.09375 8.3125 -15.09375 C 9.707031 -15.09375 10.984375 -14.769531 12.140625 -14.125 C 13.304688 -13.476562 14.222656 -12.570312 14.890625 -11.40625 C 15.566406 -10.25 15.90625 -8.941406 15.90625 -7.484375 C 15.90625 -6.023438 15.566406 -4.710938 14.890625 -3.546875 C 14.222656 -2.390625 13.304688 -1.484375 12.140625 -0.828125 C 10.972656 -0.179688 9.695312 0.140625 8.3125 0.140625 Z M 8.3125 -3.6875 C 9.363281 -3.6875 10.191406 -4.03125 10.796875 -4.71875 C 11.410156 -5.40625 11.71875 -6.328125 11.71875 -7.484375 C 11.71875 -8.660156 11.410156 -9.585938 10.796875 -10.265625 C 10.191406 -10.953125 9.363281 -11.296875 8.3125 -11.296875 C 7.238281 -11.296875 6.398438 -10.953125 5.796875 -10.265625 C 5.191406 -9.585938 4.890625 -8.660156 4.890625 -7.484375 C 4.890625 -6.316406 5.191406 -5.390625 5.796875 -4.703125 C 6.398438 -4.023438 7.238281 -3.6875 8.3125 -3.6875 Z M 8.3125 -3.6875 "/></g></g></g></g></g></g><g transform="matrix(1, 0, 0, 1, 87, 24)"><g clip-path="url(#40f12756b6)"><g clip-path="url(#8829791ad3)"><g fill="#fff9fb" fill-opacity="1"><g transform="translate(0.361294, 6.799259)"><g><path d="M 1.75 -4.390625 C 2.488281 -4.390625 3.054688 -4.191406 3.453125 -3.796875 C 3.859375 -3.410156 4.0625 -2.875 4.0625 -2.1875 C 4.0625 -1.5 3.859375 -0.960938 3.453125 -0.578125 C 3.054688 -0.191406 2.488281 0 1.75 0 L 0.515625 0 L 0.515625 -4.390625 Z M 1.75 -0.234375 C 2.40625 -0.234375 2.90625 -0.40625 3.25 -0.75 C 3.601562 -1.09375 3.78125 -1.570312 3.78125 -2.1875 C 3.78125 -2.800781 3.601562 -3.28125 3.25 -3.625 C 2.90625 -3.976562 2.40625 -4.15625 1.75 -4.15625 L 0.796875 -4.15625 L 0.796875 -0.234375 Z M 1.75 -0.234375 "/></g></g></g></g><g fill="#fff9fb" fill-opacity="1"><g transform="translate(9.752422, 6.799259)"><g><path d="M 3 -1.125 L 0.921875 -1.125 L 0.5 0 L 0.1875 0 L 1.8125 -4.28125 L 2.125 -4.28125 L 3.71875 0 L 3.421875 0 Z M 2.90625 -1.359375 L 1.96875 -3.921875 L 1 -1.359375 Z M 2.90625 -1.359375 "/></g></g></g><g fill="#fff9fb" fill-opacity="1"><g transform="translate(18.662955, 6.799259)"><g><path d="M 2.9375 -4.390625 L 2.9375 -4.15625 L 1.6875 -4.15625 L 1.6875 0 L 1.40625 0 L 1.40625 -4.15625 L 0.15625 -4.15625 L 0.15625 -4.390625 Z M 2.9375 -4.390625 "/></g></g></g><g fill="#fff9fb" fill-opacity="1"><g transform="translate(26.749598, 6.799259)"><g><path d="M 3 -1.125 L 0.921875 -1.125 L 0.5 0 L 0.1875 0 L 1.8125 -4.28125 L 2.125 -4.28125 L 3.71875 0 L 3.421875 0 Z M 2.90625 -1.359375 L 1.96875 -3.921875 L 1 -1.359375 Z M 2.90625 -1.359375 "/></g></g></g><g fill="#fff9fb" fill-opacity="1"><g transform="translate(35.660131, 6.799259)"><g/></g></g><g fill="#fff9fb" fill-opacity="1"><g transform="translate(42.417332, 6.799259)"><g><path d="M 0.796875 -4.15625 L 0.796875 -2.3125 L 2.546875 -2.3125 L 2.546875 -2.078125 L 0.796875 -2.078125 L 0.796875 -0.234375 L 2.734375 -0.234375 L 2.734375 0 L 0.515625 0 L 0.515625 -4.390625 L 2.734375 -4.390625 L 2.734375 -4.15625 Z M 0.796875 -4.15625 "/></g></g></g><g fill="#fff9fb" fill-opacity="1"><g transform="translate(50.47901, 6.799259)"><g><path d="M 3.65625 0 L 3.375 0 L 0.796875 -3.921875 L 0.796875 0 L 0.515625 0 L 0.515625 -4.375 L 0.796875 -4.375 L 3.375 -0.46875 L 3.375 -4.375 L 3.65625 -4.375 Z M 3.65625 0 "/></g></g></g><g fill="#fff9fb" fill-opacity="1"><g transform="translate(59.639201, 6.799259)"><g><path d="M 4.125 -3.09375 C 4 -3.425781 3.789062 -3.6875 3.5 -3.875 C 3.207031 -4.070312 2.863281 -4.171875 2.46875 -4.171875 C 2.125 -4.171875 1.8125 -4.085938 1.53125 -3.921875 C 1.25 -3.765625 1.023438 -3.535156 0.859375 -3.234375 C 0.703125 -2.929688 0.625 -2.582031 0.625 -2.1875 C 0.625 -1.789062 0.703125 -1.441406 0.859375 -1.140625 C 1.023438 -0.835938 1.25 -0.601562 1.53125 -0.4375 C 1.8125 -0.28125 2.125 -0.203125 2.46875 -0.203125 C 2.800781 -0.203125 3.101562 -0.273438 3.375 -0.421875 C 3.644531 -0.578125 3.859375 -0.789062 4.015625 -1.0625 C 4.179688 -1.34375 4.273438 -1.671875 4.296875 -2.046875 L 2.34375 -2.046875 L 2.34375 -2.28125 L 4.578125 -2.28125 L 4.578125 -2.09375 C 4.566406 -1.6875 4.46875 -1.316406 4.28125 -0.984375 C 4.101562 -0.660156 3.851562 -0.40625 3.53125 -0.21875 C 3.21875 -0.0390625 2.863281 0.046875 2.46875 0.046875 C 2.0625 0.046875 1.695312 -0.046875 1.375 -0.234375 C 1.050781 -0.429688 0.796875 -0.695312 0.609375 -1.03125 C 0.429688 -1.375 0.34375 -1.757812 0.34375 -2.1875 C 0.34375 -2.625 0.429688 -3.007812 0.609375 -3.34375 C 0.796875 -3.6875 1.050781 -3.953125 1.375 -4.140625 C 1.695312 -4.328125 2.0625 -4.421875 2.46875 -4.421875 C 2.9375 -4.421875 3.34375 -4.300781 3.6875 -4.0625 C 4.03125 -3.832031 4.28125 -3.507812 4.4375 -3.09375 Z M 4.125 -3.09375 "/></g></g></g><g fill="#fff9fb" fill-opacity="1"><g transform="translate(69.54838, 6.799259)"><g><path d="M 0.796875 -4.390625 L 0.796875 0 L 0.515625 0 L 0.515625 -4.390625 Z M 0.796875 -4.390625 "/></g></g></g><g fill="#fff9fb" fill-opacity="1"><g transform="translate(75.856192, 6.799259)"><g><path d="M 3.65625 0 L 3.375 0 L 0.796875 -3.921875 L 0.796875 0 L 0.515625 0 L 0.515625 -4.375 L 0.796875 -4.375 L 3.375 -0.46875 L 3.375 -4.375 L 3.65625 -4.375 Z M 3.65625 0 "/></g></g></g><g fill="#fff9fb" fill-opacity="1"><g transform="translate(85.016384, 6.799259)"><g><path d="M 0.796875 -4.15625 L 0.796875 -2.3125 L 2.546875 -2.3125 L 2.546875 -2.078125 L 0.796875 -2.078125 L 0.796875 -0.234375 L 2.734375 -0.234375 L 2.734375 0 L 0.515625 0 L 0.515625 -4.390625 L 2.734375 -4.390625 L 2.734375 -4.15625 Z M 0.796875 -4.15625 "/></g></g></g><g fill="#fff9fb" fill-opacity="1"><g transform="translate(93.078062, 6.799259)"><g><path d="M 0.796875 -4.15625 L 0.796875 -2.3125 L 2.546875 -2.3125 L 2.546875 -2.078125 L 0.796875 -2.078125 L 0.796875 -0.234375 L 2.734375 -0.234375 L 2.734375 0 L 0.515625 0 L 0.515625 -4.390625 L 2.734375 -4.390625 L 2.734375 -4.15625 Z M 0.796875 -4.15625 "/></g></g></g><g fill="#fff9fb" fill-opacity="1"><g transform="translate(101.13974, 6.799259)"><g><path d="M 2.875 0 L 1.75 -1.875 L 0.796875 -1.875 L 0.796875 0 L 0.515625 0 L 0.515625 -4.390625 L 1.71875 -4.390625 C 2.207031 -4.390625 2.570312 -4.273438 2.8125 -4.046875 C 3.0625 -3.816406 3.1875 -3.507812 3.1875 -3.125 C 3.1875 -2.789062 3.085938 -2.515625 2.890625 -2.296875 C 2.703125 -2.078125 2.425781 -1.941406 2.0625 -1.890625 L 3.21875 0 Z M 0.796875 -2.109375 L 1.734375 -2.109375 C 2.117188 -2.109375 2.40625 -2.203125 2.59375 -2.390625 C 2.789062 -2.578125 2.890625 -2.820312 2.890625 -3.125 C 2.890625 -3.800781 2.5 -4.140625 1.71875 -4.140625 L 0.796875 -4.140625 Z M 0.796875 -2.109375 "/></g></g></g></g></g><path stroke-linecap="round" transform="matrix(0, 0.735577, -0.735577, 0, 63.219108, 0.0032704)" fill="none" stroke-linejoin="miter" d="M 0.500047 0.499669 L 49.791717 0.499669 " stroke="#b4b4b4" stroke-width="1" stroke-opacity="1" stroke-miterlimit="4"/></svg>